<svg xmlns="http://www.w3.org/2000/svg"  viewBox="0 0 100 100" width="100px" height="100px"><path d="M53,99c-15.155,0-29.171-8.388-36.404-21.575C17,72,7,70.547,7,64.5 c0-3.237,1.164-6.308,3.192-8.706C9.101,53.477,8,50.217,8,46.5c0-9.759,3.844-15.519,6.933-20.146 c1.444-2.162,2.69-4.028,3.481-6.137C22.876,8.319,41.243,4,52.5,4c11.082,0,30.87,2.566,38.89,19.751 c6.489,13.906,7.927,23.603,4.557,32.223C97.886,58.354,99,61.365,99,64.5c0,6.047-4.026,11.237-9.596,12.925 C82.171,90.612,68.155,99,53,99z" opacity=".35"/><path fill="#f2f2f2" d="M51,97c-15.155,0-29.171-8.388-36.404-21.575C9.026,73.737,5,68.547,5,62.5 c0-3.237,1.164-6.308,3.192-8.706C7.101,51.477,6,48.217,6,44.5c0-9.759,3.844-15.519,6.933-20.146 c1.444-2.162,2.69-4.028,3.481-6.137C20.876,6.319,39.243,2,50.5,2c11.082,0,30.87,2.566,38.89,19.751 c6.489,13.906,7.927,23.603,4.557,32.223C95.886,56.354,97,59.365,97,62.5c0,6.047-4.026,11.237-9.596,12.925 C80.171,88.612,66.155,97,51,97z"/><path fill="#d47f56" d="M86,55.5c0-0.338,0.5-1,0.5-1c4-7,4-15-3-30s-26-16-33-16c-10,0-25,4-28,12s-10,12-10,24 c0,5,3,9,3,9s0.51,2.309,0.512,2.464C13.376,56.968,86,55.655,86,55.5z"/><path fill="#ffb789" d="M24,62.5c0,3.038-0.962,7.5-4,7.5s-9-2.962-9-6s4.462-9,7.5-9S24,59.462,24,62.5z"/><path fill="#ffb789" d="M90,63c0,3.038-2.962,7-6,7s-6-4.462-6-7.5s2.962-7.5,6-7.5S90,59.962,90,63z"/><circle cx="51" cy="55.5" r="33.5" fill="#fedeb3"/><path fill="none" stroke="#40396e" stroke-linecap="round" stroke-linejoin="round" stroke-miterlimit="10" stroke-width="3" d="M85.988,55.964C85.99,55.809,86,55.655,86,55.5c0-0.338,0.5-1,0.5-1c4-7,4-15-3-30s-26-16-33-16c-10,0-25,4-28,12s-10,12-10,24 c0,5,3,9,3,9s0.5,1.331,0.5,2c0,0.155,0.01,0.309,0.012,0.464C13.376,56.968,11.5,59.512,11.5,62.5c0,3.866,3.134,7,7,7 c0.139,0,0.274-0.013,0.411-0.021C24.308,81.85,36.641,90.5,51,90.5s26.692-8.65,32.089-21.021 c0.137,0.008,0.272,0.021,0.411,0.021c3.866,0,7-3.134,7-7C90.5,59.512,88.624,56.968,85.988,55.964z"/><path fill="#fff" d="M47.5,47.103C47.5,54.226,42.351,60,36,60s-11.5-5.774-11.5-12.897 C33.225,45.107,39.747,45.511,47.5,47.103z"/><path fill="#40396e" d="M35.431,45.774C35.165,46.113,35,46.535,35,47c0,1.105,0.895,2,2,2s2-0.895,2-2 c0-0.426-0.135-0.819-0.363-1.144C37.577,45.79,36.508,45.766,35.431,45.774z"/><path fill="#fff" d="M54.5,47.103C54.5,54.226,59.649,60,66,60s11.5-5.774,11.5-12.897 C68.775,45.107,62.253,45.511,54.5,47.103z"/><path fill="#40396e" d="M66.569,45.774C66.835,46.113,67,46.535,67,47c0,1.105-0.895,2-2,2s-2-0.895-2-2 c0-0.426,0.135-0.819,0.363-1.144C64.423,45.79,65.492,45.766,66.569,45.774z"/><path fill="none" stroke="#40396e" stroke-linecap="round" stroke-linejoin="round" stroke-miterlimit="10" stroke-width="3" d="M31.343,33.843c0.061,0.056,4.882-1.764,11.314,0"/><path fill="none" stroke="#40396e" stroke-linecap="round" stroke-linejoin="round" stroke-miterlimit="10" stroke-width="3" d="M70.657,33.843c-0.061,0.056-4.882-1.764-11.314,0"/><path fill="none" stroke="#40396e" stroke-linecap="round" stroke-linejoin="round" stroke-miterlimit="10" stroke-width="3" d="M51.646,55.197l3.182,3.182c1.367,1.367,1.367,3.583,0,4.95l0,0c-1.367,1.367-3.583,1.367-4.95,0l-3.182-3.182"/><path fill="none" stroke="#40396e" stroke-linecap="round" stroke-linejoin="round" stroke-miterlimit="10" stroke-width="3" d="M37.5,76.5c0,0,5-1,12.5-1c8.5,0,12.5,1,12.5,1"/><path fill="#40396e" d="M37.5,46c-10.495,0-12.989,1.163-12.989,1.146C25.371,46,30.229,43,37.5,43 c5.293,0,8.669,2.427,10.046,4.167C46.705,46.996,42.258,46,37.5,46z"/><path fill="#40396e" d="M64.558,46c10.495,0,12.989,1.163,12.989,1.146C76.687,46,72.271,43,65,43 c-5.293,0-9.111,2.427-10.489,4.167C55.353,46.996,59.799,46,64.558,46z"/></svg>