<svg xmlns="http://www.w3.org/2000/svg"  viewBox="0 0 100 100" width="100px" height="100px" baseProfile="basic"><path fill="#f599a0" d="M55.008,75.508c0-2.535-1.717-4.663-4.049-5.3c0.029-0.23,0.049-0.462,0.049-0.7 c0-3.038-2.462-5.5-5.5-5.5c-1.501,0-2.86,0.603-3.852,1.577c-0.78-2.088-2.788-3.577-5.148-3.577c-2.535,0-4.663,1.717-5.3,4.049 c-0.23-0.029-0.462-0.049-0.7-0.049c-3.038,0-5.5,2.462-5.5,5.5c0,1.159,0.36,2.232,0.972,3.119 c-1.764,0.916-2.972,2.756-2.972,4.881c0,3.038,2.462,5.5,5.5,5.5c0.636,0,1.244-0.113,1.812-0.312 c-0.198,0.568-0.312,1.176-0.312,1.812c0,3.038,2.462,5.5,5.5,5.5c2.69,0,4.926-1.933,5.403-4.485 c0.983,1.496,2.674,2.485,4.597,2.485c3.038,0,5.5-2.462,5.5-5.5c0-1.335-0.476-2.559-1.268-3.512 C52.669,80.874,55.008,78.467,55.008,75.508z"/><path fill="#f05b6c" d="M69.363,27.334c0,0,5.63-1.878,5.132-3.521c-0.34-1.078-5.826,0.989-5.826,0.989L69.363,27.334z"/><path fill="#f05b6c" d="M69.5,30.5c0,0,9-0.314,9,1c-0.117,1.341-9,1-9,1s5,1,5,2s-5.662,1.175-5.831,1.088 C68.5,35.5,67.5,33.037,67.5,33.037L69.5,30.5z"/><path fill="#f05b6c" d="M67.5,39.467c0,0,7.497,5.12,8,2.033c0.322-1.974-7-5-7-5L67.5,39.467z"/><path fill="#f05b6c" d="M65.493,41.573c0,0,4.925,8.225,6.863,5.427C73.63,45.162,66,37,66,37L65.493,41.573z"/><path fill="#f05b6c" d="M62.5,46.5c0,0,3,5,4,4s-2-7-2-7L62.5,46.5z"/><path fill="none" stroke="#1f212b" stroke-linecap="round" stroke-linejoin="round" stroke-miterlimit="10" d="M69.363,27.334 c0,0,5.63-1.878,5.132-3.521c-0.34-1.078-5.826,0.989-5.826,0.989L69.363,27.334z"/><path fill="none" stroke="#1f212b" stroke-linecap="round" stroke-linejoin="round" stroke-miterlimit="10" d="M69.5,30.5 c0,0,9-0.314,9,1c-0.117,1.341-9,1-9,1s5,1,5,2s-5.662,1.175-5.831,1.088C68.5,35.5,67.5,33.037,67.5,33.037L69.5,30.5z"/><path fill="none" stroke="#1f212b" stroke-linecap="round" stroke-linejoin="round" stroke-miterlimit="10" d="M67.5,39.467 c0,0,7.497,5.12,8,2.033c0.322-1.974-7-5-7-5L67.5,39.467z"/><path fill="none" stroke="#1f212b" stroke-linecap="round" stroke-linejoin="round" stroke-miterlimit="10" d="M65.493,41.573 c0,0,4.925,8.225,6.863,5.427C73.63,45.162,66,37,66,37L65.493,41.573z"/><path fill="none" stroke="#1f212b" stroke-linecap="round" stroke-linejoin="round" stroke-miterlimit="10" d="M62.5,46.5 c0,0,3,5,4,4s-2-7-2-7L62.5,46.5z"/><path fill="#f3cbca" d="M46.514,64.304l4.59-12.728c0.113,0.032,0.226,0.063,0.34,0.092l0.192,0.052l0.003-0.013 c0.391,0.093,0.783,0.184,1.188,0.237c8.44,1.117,16.44-6.885,17.869-17.873c1.31-10.075-3.368-19.141-10.66-21.442l0.002-0.01 l-0.157-0.043c-0.215-0.065-0.432-0.124-0.651-0.177L49.037,9.637c-0.327-0.104-0.659-0.194-0.997-0.27l-0.371-0.074l0,0 c-0.229-0.044-0.452-0.106-0.686-0.137C38.55,8.038,30.557,16.04,29.13,27.027c-0.662,5.101,0.207,9.945,2.173,13.784l-1.491,4.332 l4.325,4.725l5.24-1.227l2.828,0.521l-3.417,13.172l3.084,2.422L46.514,64.304z"/><path fill="none" stroke="#1f212b" stroke-linecap="round" stroke-linejoin="round" stroke-miterlimit="10" stroke-width="2" d="M39.488,48.3c0.144,0.048,0.495,0.165,0.669,0.215l-0.003,0.015l2.14,0.58"/><path fill="none" stroke="#1f212b" stroke-linecap="round" stroke-linejoin="round" stroke-miterlimit="10" stroke-width="2" d="M50.46,51.325l0.733,0.199c0.113,0.032,0.226,0.063,0.34,0.092l0.192,0.052l0.003-0.013c0.391,0.093,0.783,0.184,1.188,0.237 c8.44,1.117,16.44-6.885,17.869-17.873c1.31-10.075-3.368-19.141-10.66-21.442l0.002-0.01l-0.157-0.043 c-0.215-0.065-0.432-0.124-0.651-0.177L49.126,9.584c-0.327-0.104-0.659-0.194-0.997-0.27l-0.371-0.074l0,0 c-0.229-0.044-0.452-0.106-0.686-0.137c-8.432-1.117-16.425,6.885-17.852,17.873c-0.662,5.101,0.207,9.945,2.173,13.784"/><path fill="none" stroke="#1f212b" stroke-linecap="round" stroke-linejoin="round" stroke-miterlimit="10" d="M59.964,26.89 c0.041,1.34-0.025,2.721-0.208,4.13c-1.427,10.988-9.451,18.578-17.883,17.461 M58.343,19.068c0.508,1.232,0.907,2.551,1.183,3.938 M47.072,9.592c4.216,0.558,7.744,3.168,10.039,7.012"/><path fill="none" stroke="#1f212b" stroke-linecap="round" stroke-linejoin="round" stroke-miterlimit="10" d="M30.5,66.511 c1.173,0,2.261,0.367,3.153,0.993"/><path fill="none" stroke="#1f212b" stroke-linecap="round" stroke-linejoin="round" stroke-miterlimit="10" d="M23,80.107 c0-3.038,2.462-5.5,5.5-5.5"/><path fill="none" stroke="#1f212b" stroke-linecap="round" stroke-linejoin="round" stroke-miterlimit="10" stroke-width="2" d="M55.008,75.508c0-2.535-1.717-4.663-4.049-5.3c0.029-0.23,0.049-0.462,0.049-0.7c0-3.038-2.462-5.5-5.5-5.5 c-1.501,0-2.86,0.603-3.852,1.577c-0.78-2.088-2.788-3.577-5.148-3.577c-2.535,0-4.663,1.717-5.3,4.049 c-0.23-0.029-0.462-0.049-0.7-0.049c-3.038,0-5.5,2.462-5.5,5.5c0,1.159,0.36,2.232,0.972,3.119 c-1.764,0.916-2.972,2.756-2.972,4.881c0,3.038,2.462,5.5,5.5,5.5c0.636,0,1.244-0.113,1.812-0.312 c-0.198,0.568-0.312,1.176-0.312,1.812c0,3.038,2.462,5.5,5.5,5.5c2.69,0,4.926-1.933,5.403-4.485 c0.983,1.496,2.674,2.485,4.597,2.485c3.038,0,5.5-2.462,5.5-5.5c0-1.335-0.476-2.559-1.268-3.512 C52.669,80.874,55.008,78.467,55.008,75.508z"/><path fill="none" stroke="#1f212b" stroke-linecap="round" stroke-linejoin="round" stroke-miterlimit="10" d="M45.324,89.569 c-2.819,0-5.105-2.286-5.105-5.105"/><path fill="none" stroke="#1f212b" stroke-linecap="round" stroke-linejoin="round" stroke-miterlimit="10" d="M49.913,80.501 c-1.525,0-2.284-0.365-3.101-1.032"/><path fill="none" stroke="#1f212b" stroke-linecap="round" stroke-linejoin="round" stroke-miterlimit="10" d="M50.56,69.287 c0,1.575-0.703,2.986-1.812,3.936"/><path fill="none" stroke="#1f212b" stroke-linecap="round" stroke-linejoin="round" stroke-miterlimit="10" d="M33.5,79.5 c-1.839,0-3.447-0.993-4.315-2.473"/><path fill="none" stroke="#1f212b" stroke-linecap="round" stroke-linejoin="round" stroke-miterlimit="10" d="M29.953,70.976 c0.906-0.911,2.16-1.476,3.547-1.476c2.761,0,5,2.239,5,5"/><path fill="none" stroke="#1f212b" stroke-linecap="round" stroke-linejoin="round" stroke-miterlimit="10" d="M36.983,84.841 C36.252,85.26,35.404,85.5,34.5,85.5c-2.761,0-5-2.239-5-5"/><path fill="none" stroke="#1f212b" stroke-linecap="round" stroke-linejoin="round" stroke-miterlimit="10" stroke-width="2" d="M50.398,51.41c-1.165,4.214-2.331,8.427-3.496,12.641"/><line x1="38.36" x2="42.267" y1="62.253" y2="49.177" fill="none" stroke="#1f212b" stroke-linecap="round" stroke-linejoin="round" stroke-miterlimit="10" stroke-width="2"/><path fill="none" stroke="#1f212b" stroke-linecap="round" stroke-linejoin="round" stroke-miterlimit="10" d="M42.209,48.922 c2.165-0.321,5.616,0.149,8.508,2.043"/><path fill="none" stroke="#1f212b" stroke-linecap="round" stroke-linejoin="round" stroke-miterlimit="10" d="M36.706,32.066 C36.572,31.566,36.5,31.042,36.5,30.5c0-3.314,2.686-6,6-6"/><path fill="none" stroke="#1f212b" stroke-linecap="round" stroke-linejoin="round" stroke-miterlimit="10" d="M48.5,30.5 c0,3.314-2.686,6-6,6c-0.951,0-1.849-0.221-2.648-0.615"/><path fill="none" stroke="#1f212b" stroke-linecap="round" stroke-linejoin="round" stroke-miterlimit="10" d="M38.635,40.605 c1.137,0.917,1.865,2.321,1.865,3.895c0,2.761-2.239,5-5,5s-5-2.239-5-5c0-2.461,1.778-4.507,4.12-4.923"/><path fill="none" stroke="#1f212b" stroke-linecap="round" stroke-linejoin="round" stroke-miterlimit="10" stroke-width="2" d="M39.466,48.424c-1.005,0.967-2.371,1.562-3.876,1.562c-3.088,0-5.591-2.503-5.591-5.591c0-1.37,0.492-2.624,1.31-3.596"/><path fill="none" stroke="#1f212b" stroke-linecap="round" stroke-linejoin="round" stroke-miterlimit="10" d="M34.5,41.5 c0,0,0-5.389,2.27-9.553c0.472-0.865,1.042-1.678,1.73-2.378"/><path fill="none" stroke="#1f212b" stroke-linecap="round" stroke-linejoin="round" stroke-miterlimit="10" d="M38.635,40.606 c0.272-2.276,1.094-6.017,3.574-7.856"/></svg>